<svg version="1.0" xmlns="http://www.w3.org/2000/svg" width="640.000000pt" height="640.000000pt" viewBox="0 0 640.000000 640.000000" preserveAspectRatio="xMidYMid meet">
  <g transform="translate(0.000000,640.000000) scale(0.100000,-0.100000)" fill="#000000" stroke="none">
    <path d="M3422 5453 c-31 -6 -103 -82 -167 -178 -114 -171 -161 -305 -152 -439 7 -103 19 -142 65 -210 20 -30 162 -195 315 -367 l277 -312 0 -147 0 -148 -49 23 c-232 112 -520 -20 -597 -274 -21 -69 -20 -1162 1 -1241 48 -182 192 -344 365 -413 107 -42 2096 -767 2105 -767 3 0 5 48 5 108 l0 107 -863 314 c-1368 499 -1233 445 -1297 511 -67 68 -104 135 -120 215 -8 42 -10 219 -8 585 3 520 3 525 25 567 81 150 290 165 386 26 15 -22 32 -55 37 -74 6 -19 10 -155 10 -304 0 -249 2 -272 19 -301 27 -44 79 -61 123 -40 66 31 63 0 66 669 2 401 -1 620 -8 645 -8 27 -88 124 -306 367 -162 182 -307 350 -322 374 -58 98 -14 280 103 427 l20 25 464 -478 c255 -263 471 -492 480 -508 14 -27 17 -97 21 -610 l5 -580 27 -75 c53 -146 179 -291 300 -348 35 -16 149 -59 253 -96 105 -36 278 -97 385 -135 l195 -68 3 105 c1 57 1 106 -1 108 -2 2 -145 53 -318 114 -465 163 -445 154 -515 224 -35 35 -73 86 -90 121 l-29 60 -5 585 c-5 581 -6 585 -28 643 -13 31 -40 78 -61 105 -63 78 -1042 1082 -1056 1082 -7 0 -19 2 -27 4 -7 2 -23 1 -36 -1z">
      <!-- Animación de empujar -->
      <animateTransform attributeName="transform" type="translate" from="0 0" to="1200 0" begin="0s" dur="2s" repeatCount="indefinite" />
      <animateTransform attributeName="transform" type="translate" from="1200 0" to="0 0" begin="2s" dur="2s" repeatCount="indefinite" />
      
    </path>
  </g>
</svg>
